<svg width="18" height="18" viewBox="0 0 18 18" fill="none" xmlns="http://www.w3.org/2000/svg">
<path d="M15.023 15.5924C15.368 15.9374 15.9005 15.4049 15.5555 15.0674L12.743 12.2474C13.7296 11.1558 14.2749 9.7363 14.273 8.26492C14.273 4.97242 11.5955 2.29492 8.30301 2.29492C5.01051 2.29492 2.33301 4.97242 2.33301 8.26492C2.33301 11.5574 5.01051 14.2349 8.30301 14.2349C9.78801 14.2349 11.1605 13.6874 12.2105 12.7799L15.023 15.5924ZM3.08226 8.26492C3.08226 5.38492 5.42976 3.04492 8.30226 3.04492C11.1823 3.04492 13.5223 5.38492 13.5223 8.26492C13.5223 11.1449 11.1823 13.4849 8.30226 13.4849C5.42976 13.4849 3.08226 11.1449 3.08226 8.26492Z" fill="black"/>
</svg>
