<svg width="25" height="24" viewBox="0 0 25 24" fill="none" xmlns="http://www.w3.org/2000/svg">
<g clip-path="url(#clip0_326_664)">
<path fill-rule="evenodd" clip-rule="evenodd" d="M13.2068 15.7073C13.0193 15.8948 12.765 16.0001 12.4998 16.0001C12.2347 16.0001 11.9803 15.8948 11.7928 15.7073L6.13582 10.0503C6.04031 9.9581 5.96413 9.84775 5.91172 9.72575C5.85931 9.60374 5.83172 9.47252 5.83057 9.33974C5.82942 9.20696 5.85472 9.07529 5.905 8.95239C5.95528 8.82949 6.02953 8.71784 6.12343 8.62395C6.21732 8.53006 6.32897 8.4558 6.45187 8.40552C6.57476 8.35524 6.70644 8.32994 6.83922 8.33109C6.972 8.33225 7.10322 8.35983 7.22522 8.41224C7.34723 8.46465 7.45757 8.54083 7.54982 8.63634L12.4998 13.5863L17.4498 8.63634C17.6384 8.45418 17.891 8.35339 18.1532 8.35567C18.4154 8.35795 18.6662 8.46312 18.8516 8.64852C19.037 8.83393 19.1422 9.08474 19.1445 9.34694C19.1468 9.60914 19.046 9.86174 18.8638 10.0503L13.2068 15.7073Z" fill="#02033B"/>
</g>
<defs>
<clipPath id="clip0_326_664">
<rect width="24" height="24" fill="white" transform="matrix(0 1 -1 0 24.5 0)"/>
</clipPath>
</defs>
</svg>
