<svg width="16" height="16" viewBox="0 0 16 16" fill="none" xmlns="http://www.w3.org/2000/svg">
<path d="M13.875 8C13.875 8.09946 13.8355 8.19484 13.7652 8.26517C13.6948 8.33549 13.5995 8.375 13.5 8.375H2.5C2.40054 8.375 2.30516 8.33549 2.23483 8.26517C2.16451 8.19484 2.125 8.09946 2.125 8C2.125 7.90054 2.16451 7.80516 2.23483 7.73484C2.30516 7.66451 2.40054 7.625 2.5 7.625H13.5C13.5995 7.625 13.6948 7.66451 13.7652 7.73484C13.8355 7.80516 13.875 7.90054 13.875 8ZM2.5 4.375H13.5C13.5995 4.375 13.6948 4.33549 13.7652 4.26516C13.8355 4.19484 13.875 4.09946 13.875 4C13.875 3.90054 13.8355 3.80516 13.7652 3.73483C13.6948 3.66451 13.5995 3.625 13.5 3.625H2.5C2.40054 3.625 2.30516 3.66451 2.23483 3.73483C2.16451 3.80516 2.125 3.90054 2.125 4C2.125 4.09946 2.16451 4.19484 2.23483 4.26516C2.30516 4.33549 2.40054 4.375 2.5 4.375ZM13.5 11.625H2.5C2.40054 11.625 2.30516 11.6645 2.23483 11.7348C2.16451 11.8052 2.125 11.9005 2.125 12C2.125 12.0995 2.16451 12.1948 2.23483 12.2652C2.30516 12.3355 2.40054 12.375 2.5 12.375H13.5C13.5995 12.375 13.6948 12.3355 13.7652 12.2652C13.8355 12.1948 13.875 12.0995 13.875 12C13.875 11.9005 13.8355 11.8052 13.7652 11.7348C13.6948 11.6645 13.5995 11.625 13.5 11.625Z" fill="white"/>
</svg>
