<svg width="15" height="26" viewBox="0 0 15 26" fill="none" xmlns="http://www.w3.org/2000/svg">
<path fill-rule="evenodd" clip-rule="evenodd" d="M1.20337 14.2958C0.859671 13.952 0.666592 13.4858 0.666592 12.9997C0.666592 12.5135 0.859671 12.0473 1.20337 11.7035L11.5745 1.33234C11.7437 1.15723 11.946 1.01756 12.1696 0.921481C12.3933 0.825398 12.6339 0.774825 12.8773 0.77271C13.1207 0.770594 13.3621 0.816981 13.5874 0.909162C13.8128 1.00134 14.0175 1.13748 14.1896 1.30961C14.3617 1.48175 14.4979 1.68644 14.59 1.91175C14.6822 2.13706 14.7286 2.37848 14.7265 2.6219C14.7244 2.86533 14.6738 3.1059 14.5777 3.32958C14.4816 3.55325 14.342 3.75555 14.1669 3.92467L5.09187 12.9997L14.1669 22.0747C14.5008 22.4204 14.6856 22.8835 14.6814 23.3642C14.6773 23.8449 14.4845 24.3048 14.1445 24.6447C13.8046 24.9846 13.3448 25.1774 12.8641 25.1816C12.3834 25.1857 11.9203 25.001 11.5745 24.667L1.20337 14.2958Z" fill="#0093DD"/>
</svg>
