<svg width="34" height="24" viewBox="0 0 34 24" fill="none" xmlns="http://www.w3.org/2000/svg">
<path d="M17 0.300781L0.581055 6.45805L17 14.6675L24.8202 10.7574L17.484 8.51448C17.3329 8.58692 17.1676 8.62471 17 8.62508C16.7016 8.62508 16.4155 8.50655 16.2045 8.29557C15.9935 8.08459 15.875 7.79845 15.875 7.50008C15.875 7.20171 15.9935 6.91556 16.2045 6.70458C16.4155 6.4936 16.7016 6.37508 17 6.37508L16.814 6.97991L18.1173 7.3809C18.1175 7.38221 18.1177 7.38352 18.1179 7.38484L20.0412 7.973L30.9922 11.3423V12.1963C30.8407 12.2994 30.7167 12.4378 30.631 12.5997C30.5452 12.7616 30.5002 12.942 30.5 13.1251C30.5002 13.3125 30.5472 13.4969 30.6368 13.6615C30.7263 13.8261 30.8556 13.9658 31.0128 14.0678C30.5007 16.0031 30.5 20.3942 30.5 22.1251C31.625 22.856 31.625 22.8827 32.75 22.1251C32.75 20.3944 32.7494 16.0042 32.2374 14.0684C32.3947 13.9663 32.524 13.8266 32.6135 13.6618C32.703 13.4971 32.7499 13.3126 32.75 13.1251C32.75 12.9417 32.7051 12.7611 32.6194 12.599C32.5336 12.4369 32.4095 12.2982 32.2578 12.1951V10.4077L28.0866 9.1243L33.419 6.45805L17 0.300781ZM7.411 11.5079L6.48829 17.0443C8.32872 17.285 10.5303 18.3547 12.5541 19.6196C13.7052 20.3391 14.7833 21.1287 15.6589 21.8949C16.1941 22.3632 16.6416 22.8125 17 23.2546C17.3584 22.8125 17.8059 22.3632 18.3412 21.8949C19.2168 21.1287 20.2948 20.3391 21.4459 19.6196C23.4697 18.3547 25.6713 17.285 27.5117 17.0443L26.5889 11.5079H26.1494L17 16.0826L7.85045 11.5079H7.411Z" fill="#444D61"/>
</svg>
