<svg width="36" height="36" viewBox="0 0 36 36" fill="none" xmlns="http://www.w3.org/2000/svg">
<path d="M36 22.5001V36.0001H18V22.5001H22.5V18.0001H31.5V22.5001H36ZM24.75 22.5001H29.25V20.2501H24.75V22.5001ZM33.75 29.2501H31.5V31.5001H29.25V29.2501H24.75V31.5001H22.5V29.2501H20.25V33.7501H33.75V29.2501ZM33.75 24.7501H20.25V27.0001H33.75V24.7501ZM27.5098 15.7501C26.877 15.0352 26.127 14.4844 25.2598 14.0977C24.3926 13.711 23.4727 13.5118 22.5 13.5001C21.5625 13.5001 20.6895 13.6758 19.8809 14.0274C19.0723 14.379 18.3574 14.8594 17.7363 15.4688C17.1152 16.0782 16.6289 16.7989 16.2773 17.6309C15.9258 18.463 15.75 19.336 15.75 20.2501C15.75 21.3282 15.5098 22.3419 15.0293 23.2911C14.5488 24.2403 13.8691 25.0372 12.9902 25.6817C13.5176 25.9512 14.0098 26.2618 14.4668 26.6133C14.9238 26.9649 15.3516 27.3633 15.75 27.8087V33.7501C15.75 32.8243 15.5742 31.9512 15.2227 31.1309C14.8711 30.3106 14.3906 29.5958 13.7812 28.9864C13.1719 28.377 12.4512 27.8907 11.6191 27.5274C10.7871 27.1641 9.91406 26.9883 9 27.0001C8.0625 27.0001 7.18945 27.1758 6.38086 27.5274C5.57227 27.879 4.85742 28.3594 4.23633 28.9688C3.61523 29.5782 3.12891 30.2989 2.77734 31.1309C2.42578 31.963 2.25 32.836 2.25 33.7501H0C0 32.8946 0.117188 32.0684 0.351562 31.2715C0.585938 30.4747 0.919922 29.7188 1.35352 29.004C1.78711 28.2891 2.31445 27.6563 2.93555 27.1055C3.55664 26.5547 4.24805 26.0801 5.00977 25.6817C4.14258 25.0489 3.46875 24.2579 2.98828 23.3087C2.50781 22.3594 2.26172 21.3399 2.25 20.2501C2.25 19.3243 2.42578 18.4512 2.77734 17.6309C3.12891 16.8106 3.60938 16.0958 4.21875 15.4864C4.82812 14.877 5.54297 14.3907 6.36328 14.0274C7.18359 13.6641 8.0625 13.4883 9 13.5001C10.0781 13.5001 11.0918 13.7403 12.041 14.2208C12.9902 14.7012 13.7871 15.3809 14.4316 16.2598C14.877 15.3809 15.4453 14.5958 16.1367 13.9044C16.8281 13.213 17.6191 12.6387 18.5098 12.1817C17.6426 11.5489 16.9688 10.7579 16.4883 9.80865C16.0078 8.85944 15.7617 7.8399 15.75 6.75006C15.75 5.82428 15.9258 4.95123 16.2773 4.13092C16.6289 3.31061 17.1094 2.59576 17.7188 1.98639C18.3281 1.37701 19.043 0.890686 19.8633 0.527405C20.6836 0.164124 21.5625 -0.0116577 22.5 6.10352e-05C23.4258 6.10352e-05 24.2988 0.175842 25.1191 0.527405C25.9395 0.878967 26.6543 1.35944 27.2637 1.96881C27.873 2.57819 28.3594 3.29889 28.7227 4.13092C29.0859 4.96295 29.2617 5.836 29.25 6.75006C29.25 7.82819 29.0098 8.84186 28.5293 9.79108C28.0488 10.7403 27.3691 11.5372 26.4902 12.1817C27.2871 12.5801 28.0078 13.0782 28.6523 13.6758C29.2969 14.2735 29.8418 14.9649 30.2871 15.7501H27.5098ZM9 24.7501C9.62109 24.7501 10.2012 24.6329 10.7402 24.3985C11.2793 24.1641 11.7598 23.8419 12.1816 23.4317C12.6035 23.0215 12.9258 22.5469 13.1484 22.0079C13.3711 21.4688 13.4883 20.8829 13.5 20.2501C13.5 19.629 13.3828 19.0489 13.1484 18.5098C12.9141 17.9708 12.5918 17.4903 12.1816 17.0684C11.7715 16.6465 11.2969 16.3243 10.7578 16.1016C10.2188 15.879 9.63281 15.7618 9 15.7501C8.37891 15.7501 7.79883 15.8672 7.25977 16.1016C6.7207 16.336 6.24023 16.6583 5.81836 17.0684C5.39648 17.4786 5.07422 17.9532 4.85156 18.4922C4.62891 19.0313 4.51172 19.6172 4.5 20.2501C4.5 20.8712 4.61719 21.4512 4.85156 21.9903C5.08594 22.5294 5.4082 23.0098 5.81836 23.4317C6.22852 23.8536 6.70312 24.1758 7.24219 24.3985C7.78125 24.6212 8.36719 24.7383 9 24.7501ZM18 6.75006C18 7.37115 18.1172 7.95123 18.3516 8.4903C18.5859 9.02936 18.9082 9.50983 19.3184 9.9317C19.7285 10.3536 20.2031 10.6758 20.7422 10.8985C21.2812 11.1212 21.8672 11.2383 22.5 11.2501C23.1211 11.2501 23.7012 11.1329 24.2402 10.8985C24.7793 10.6641 25.2598 10.3419 25.6816 9.9317C26.1035 9.52155 26.4258 9.04694 26.6484 8.50787C26.8711 7.96881 26.9883 7.38287 27 6.75006C27 6.12897 26.8828 5.54889 26.6484 5.00983C26.4141 4.47076 26.0918 3.9903 25.6816 3.56842C25.2715 3.14655 24.7969 2.82428 24.2578 2.60162C23.7188 2.37897 23.1328 2.26178 22.5 2.25006C21.8789 2.25006 21.2988 2.36725 20.7598 2.60162C20.2207 2.836 19.7402 3.15826 19.3184 3.56842C18.8965 3.97858 18.5742 4.45319 18.3516 4.99225C18.1289 5.53131 18.0117 6.11725 18 6.75006Z" fill="#444D61"/>
</svg>
