<svg width="15" height="26" viewBox="0 0 15 26" fill="none" xmlns="http://www.w3.org/2000/svg">
<path fill-rule="evenodd" clip-rule="evenodd" d="M13.7966 11.7042C14.1403 12.048 14.3334 12.5142 14.3334 13.0003C14.3334 13.4865 14.1403 13.9527 13.7966 14.2965L3.42547 24.6677C3.25635 24.8428 3.05405 24.9824 2.83037 25.0785C2.6067 25.1746 2.36613 25.2252 2.1227 25.2273C1.87927 25.2294 1.63786 25.183 1.41255 25.0908C1.18724 24.9987 0.982545 24.8625 0.810408 24.6904C0.638271 24.5183 0.502141 24.3136 0.409959 24.0882C0.317777 23.8629 0.271391 23.6215 0.273507 23.3781C0.275622 23.1347 0.326197 22.8941 0.42228 22.6704C0.518363 22.4467 0.65803 22.2445 0.833132 22.0753L9.90813 13.0003L0.833132 3.92533C0.499176 3.57956 0.314386 3.11646 0.318563 2.63576C0.32274 2.15507 0.51555 1.69524 0.855464 1.35533C1.19538 1.01542 1.6552 0.822606 2.1359 0.818429C2.61659 0.814252 3.0797 0.999041 3.42547 1.333L13.7966 11.7042Z" fill="#0093DD"/>
</svg>
